<svg xmlns="http://www.w3.org/2000/svg" width="140.698" height="141.746" viewBox="0 40.96 140.698 141.746"><g data-name="グループ 5624"><path d="M35.49 176.981a.758.758 0 0 1-.549-1.314l.052-.206a2.036 2.036 0 0 0-3.775-.036c-.898 2.103-2.061 4.28-1.483 6.596-3.819-8.095-2.52-18.163 3.124-25.085 1.56-.86 2.825-2.387 3.154-4.16-.772.262-1.735-.366-1.154-1.18.251-.31.505-.619.757-.93-2.933-3.123-6.428 1.786-3.2 6.002a24.301 24.301 0 0 0-2.729 4.27 10.219 10.219 0 0 0-.61-4.747c-.584-1.408-1.678-2.595-2.642-3.812-1.172-1.484-3.584-.8-3.741 1.083 1.081.356 1.222 1.918-.015 2.132.324 3.503 2.612 6.722 5.764 8.258a24.397 24.397 0 0 0-1.333 10.197c-.557-4.038-4.891-5.018-7.921-6.623a1.18 1.18 0 0 0-1.8 1.196c.418.17.818.38 1.195.63a1.03 1.03 0 0 1-.479 1.88c1.527 3.78 5.476 6.319 9.531 6.304a25.08 25.08 0 0 0 1.685 4.919h6.019c.021-.067.04-.136.06-.203a6.84 6.84 0 0 1-1.665-.1c1.474-1.744 2.614-2.635 1.756-5.07Z" fill="#f2f2f2" fill-rule="evenodd" data-name="パス 4448"/><path d="M89.15 176.981a.758.758 0 0 0 .55-1.314l-.053-.206a2.037 2.037 0 0 1 3.775-.036c.899 2.103 2.061 4.28 1.483 6.596 3.82-8.095 2.52-18.163-3.124-25.085-1.56-.86-2.824-2.387-3.154-4.16.773.262 1.735-.366 1.155-1.18-.252-.31-.506-.619-.758-.93 2.933-3.123 6.428 1.786 3.2 6.002a24.297 24.297 0 0 1 2.73 4.27 10.221 10.221 0 0 1 .61-4.747c.583-1.408 1.678-2.595 2.641-3.812 1.172-1.484 3.584-.8 3.742 1.083-1.082.356-1.222 1.918.015 2.132-.324 3.503-2.613 6.722-5.764 8.258a24.396 24.396 0 0 1 1.333 10.197c.556-4.038 4.89-5.018 7.92-6.623a1.18 1.18 0 0 1 1.8 1.196c-.418.17-.818.38-1.194.63a1.03 1.03 0 0 0 .478 1.88c-1.527 3.78-5.475 6.319-9.53 6.304a25.08 25.08 0 0 1-1.685 4.919H89.3c-.021-.067-.04-.136-.06-.203a6.84 6.84 0 0 0 1.666-.1c-1.474-1.744-2.614-2.635-1.756-5.07Z" fill="#f2f2f2" fill-rule="evenodd" data-name="パス 4449"/><path d="m91.381 177.875-2.592.59-3.508-9.718 3.826-.87 2.274 9.998Z" fill="#ffb6b6" fill-rule="evenodd" data-name="パス 4450"/><path d="m92.088 180.558-7.971 1.813-.023-.1a3.182 3.182 0 0 1 2.397-3.809l1.204-1.436 2.968.487.696-.159.729 3.204Z" fill="#2f2e41" fill-rule="evenodd" data-name="パス 4451"/><path d="m133.195 130.51 1.425 2.243-7.977 6.565-2.104-3.312 8.656-5.497Z" fill="#ffb6b6" fill-rule="evenodd" data-name="パス 4452"/><path d="m135.486 128.943 4.382 6.901-.087.056a3.182 3.182 0 0 1-4.392-.98l-1.757-.654-.537-2.959-.382-.602 2.773-1.762Z" fill="#2f2e41" fill-rule="evenodd" data-name="パス 4453"/><path d="m50.57 106.518-.64-3.711 9.733-4.395 2.102-3.722a1.81 1.81 0 1 1 2.673 1.201l-3.458 5.346-10.41 5.28Z" fill="#a0616a" fill-rule="evenodd" data-name="パス 4454"/><path d="m47.612 103.484 4.383-2.239 1.16 4.357-3.045 2.257-2.498-4.375Z" fill="#0672ba" fill-rule="evenodd" data-name="パス 4455"/><path d="M37.776 177.537h2.65l1.261-10.222h-3.911v10.222Z" fill="#a0616a" fill-rule="evenodd" data-name="パス 4456"/><path d="M41.308 177.776v-1.797l-.696.043-2.836.168-.657.04-.502 6.017-.027.323h1.882l.06-.32.274-1.457.706 1.457.154.32h4.99a1.127 1.127 0 0 0 1.12-1.122c.21-.984-3.939-3.11-4.468-3.672Z" fill="#2f2e41" fill-rule="evenodd" data-name="パス 4457"/><path d="m6.318 136.97-.618 2.577 9.646 3.61.912-3.804-9.94-2.383Z" fill="#a0616a" fill-rule="evenodd" data-name="パス 4458"/><path d="m5.472 140.349 1.747.419.121-.688.498-2.797.114-.648-5.735-1.89-.307-.102-.439 1.83.298.134 1.352.605-1.58.347-.348.075-1.163 4.852c-.14.601.23 1.204.83 1.35.907.435 3.942-3.104 4.612-3.487Z" fill="#2f2e41" fill-rule="evenodd" data-name="パス 4459"/><path d="m41.874 111.38-3.411-1.595-6.803 8.233-4.143 1.048a1.81 1.81 0 1 0 .455 2.894l6.067-1.928 7.835-8.652Z" fill="#a0616a" fill-rule="evenodd" data-name="パス 4460"/><path d="M90.235 80.905a3.656 3.656 0 1 1 0-7.312 3.656 3.656 0 0 1 0 7.312Zm0-6.893a3.236 3.236 0 1 0 0 6.473 3.236 3.236 0 0 0 0-6.473Z" fill="#0672ba" fill-rule="evenodd" data-name="パス 4461"/><path d="M89.977 78.626a.45.45 0 0 1-.356-.174l-.576-.74a.45.45 0 0 1 .08-.633l.02-.017a.45.45 0 0 1 .633.08.329.329 0 0 0 .498.024l1.17-1.235a.451.451 0 0 1 .637-.017l.02.018a.45.45 0 0 1 .016.638l-1.814 1.915a.45.45 0 0 1-.328.14Z" fill="#0672ba" fill-rule="evenodd" data-name="パス 4462"/><path d="M71.985 125.167a3.656 3.656 0 1 1 0-7.312 3.656 3.656 0 0 1 0 7.312Zm0-6.892a3.236 3.236 0 1 0 0 6.473 3.236 3.236 0 0 0 0-6.473Z" fill="#0672ba" fill-rule="evenodd" data-name="パス 4463"/><path d="M71.727 122.889h-.022a.45.45 0 0 1-.334-.175l-.576-.74a.451.451 0 0 1 .079-.633l.02-.016a.45.45 0 0 1 .634.08.329.329 0 0 0 .498.024l1.169-1.235a.451.451 0 0 1 .637-.017l.02.018a.45.45 0 0 1 .017.637l-1.815 1.916a.45.45 0 0 1-.327.14Z" fill="#0672ba" fill-rule="evenodd" data-name="パス 4464"/><path d="M31.918 75.87a3.656 3.656 0 1 1 0-7.312 3.656 3.656 0 0 1 0 7.312Zm0-6.892a3.236 3.236 0 1 0 0 6.472 3.236 3.236 0 0 0 0-6.472Z" fill="#0672ba" fill-rule="evenodd" data-name="パス 4465"/><path d="M31.66 73.591h-.022a.45.45 0 0 1-.334-.174l-.576-.74a.45.45 0 0 1 .079-.633l.02-.016a.45.45 0 0 1 .633.079.329.329 0 0 0 .498.024l1.17-1.234a.452.452 0 0 1 .637-.018l.02.019a.45.45 0 0 1 .017.637l-1.815 1.915a.45.45 0 0 1-.327.141Z" fill="#0672ba" fill-rule="evenodd" data-name="パス 4466"/><path d="M61.187 138.76c-8.477 0-18.22-9.407-26.84-4.937-26.1 13.533-22.507-9.113-30.005-17.535l.246-.494c8.273 7.418 18.603 13.454 29.872 17.454 10.184 3.616 20.444 5.29 29.667 4.849l.016.593c-.974.047-1.96.07-2.956.07Z" fill="#f2f2f2" fill-rule="evenodd" data-name="パス 4467"/><path d="M47.786 72.678a1.772 2.376 0 1 1 0 .1z" fill="#0672ba" fill-rule="evenodd" data-name="楕円形 220"/><path d="M70.025 112.224c-.81.54-1.64-.745-.814-1.26.81-.54 1.64.744.814 1.26Z" fill="#0672ba" fill-rule="evenodd" data-name="パス 4468"/><path d="M63.054 66.564a2.308 2.308 0 1 1 0 .1z" fill="#ff6464" fill-rule="evenodd" data-name="楕円形 221"/><path d="m73.433 79.309 13.13-38.349-14.418 37.89a.722.722 0 1 0 1.288.459Z" fill="#f0f0f0" fill-rule="evenodd" data-name="パス 4469"/><path d="M57.934 123.684a2.245 2.245 0 1 1 0 .1z" fill="#0672ba" fill-rule="evenodd" data-name="楕円形 222"/><path d="M38.435 124.64s-5.597 3.645-4.117 6.067c.05.083-6.686 8.98-6.686 8.98l-12.717-.807-.448 4.257 11.322 3.279s2.77 2.034 4.91-.207c2.139-2.242 9.266-9.108 9.266-9.108l.344 13.861-3.578 19.208 5.342-.339 5.2-19.27 1.918-21.828-10.756-4.092Z" fill="#2f2e41" fill-rule="evenodd" data-name="パス 4470"/><path d="m42.422 102.767-2.354 1.784-2.683 5.726 2.58 3.503s2.17 3.76-1.303 7.402c-3.474 3.642-6.14 7.532-3.36 7.393 2.78-.139 14.039 5.588 14.113.896.074-4.691.224-8.289.224-8.289l2.952-7.487s1.758-4.466.524-5.803c-1.235-1.337-2.889-3.046-2.889-3.046l-3.006-3.006h-2.715l-2.083.927Z" fill="#0672ba" fill-rule="evenodd" data-name="パス 4471"/><path d="M46.815 91.767c5.28 3.004.946 10.932-4.433 8.109-5.28-3.005-.945-10.932 4.433-8.11Z" fill="#a0616a" fill-rule="evenodd" data-name="パス 4472"/><path d="M49.639 93.432c-.37.482-1.143.256-2.657.6a6.312 6.312 0 0 0-.177-1.524 4.288 4.288 0 0 1-.723 1.714c-1.314.146.297 4.14-.376 7.075-.867-6.194-2.69-4.571-1.77-3.343.59.787.197 3.146-1.572 1.967-2.92 1.387-7.078-5.506-2.47-8.738-.082-1.748 1.862-2.024 3.06-1.486 2.905-2.165 6.225.609 6.685 3.735Z" fill="#2f2e41" fill-rule="evenodd" data-name="パス 4473"/><path d="M36.091 88.913c-1.176 7.228-7.476-1.33-10.44 5.783-.93 2.576.668 4.419 1.679 6.557.23 1.757-2.056 2.649-2.295 4.266-.067 3.708 5.916 3.481 7.588 1.142 1.718-2.45-.334-5.735.7-8.364 1.451-3.65 7.355-3.676 7.87-7.922-.997-1.419-3.675-3.043-5.102-1.462Z" fill="#2f2e41" fill-rule="evenodd" data-name="パス 4474"/><path d="M40.853 89.62c-.038.015-.077.032-.111.05h-.002a2.238 2.238 0 0 0-.097.05l-.01.006a7.389 7.389 0 0 0-.13-.121.468.468 0 0 0 .008.198l.006.025c.04.042.083.083.128.125l.119-.093.075-.06.016-.18Zm1.219-2.252c-.903-.206-1.195.974-1.282 1.543-.327-2.065-1.692-1.415-1.22-.006.15.417.387.797.694 1.117.043.049.09.097.138.146-.055.283.22.21.593-.05.275-.196.53-.42.759-.667.743-.779 1.322-1.822.317-2.083Zm.028 1.162a7.07 7.07 0 0 1-.933.99c-.107.097-.217.19-.328.28l-.004.048a.369.369 0 0 1-.028.057c-.114.204-.241.093-.29-.077l-.014-.019a2.854 2.854 0 0 1-.419-.554c-.836-1.45.51-2.435.443.271a.256.256 0 0 0-.024.079.468.468 0 0 0 .008.198l.006.025c.04.042.083.083.128.125.04-.03.079-.063.12-.093.023-.02.048-.04.074-.06l.016-.18v-.003c.053-.542.197-1.518.462-1.783.582-.447 1.337.037.783.696Zm-1.247 1.09c-.038.015-.077.032-.111.05h-.002c-.033.016-.065.032-.097.05l-.01.006a7.389 7.389 0 0 0-.13-.121.468.468 0 0 0 .008.198l.006.025c.04.042.083.083.128.125.04-.03.079-.063.12-.093.023-.02.048-.04.074-.06l.016-.18Z" fill="#2f2e41" fill-rule="evenodd" data-name="パス 4475"/><path d="m89.656 129.468-1.95 5.086-9.148 18.045 8.038 20.992 4.149-1.095-3.42-19.897 9.81-11.92 11.65 7.902s5.167 4.034 7.133.21c1.966-3.824 14.684-11.957 14.684-11.957l-3.146-3.357-14.647 6.854-10.109-14.228-13.044 3.365Z" fill="#2f2e41" fill-rule="evenodd" data-name="パス 4476"/><path d="m99.496 105.48-3.21-3.45-5.507-.757-6.747 4.723.068 5.229 3.335 12.32s-1.27 8.851 2.279 8.762c3.548-.089 5.482-1.858 6.928-1.498 1.445.36 7.589 1.893 7.978.288.39-1.606 2.46-.456 2.368-1.975-.09-1.519-5.602-12.466-5.602-12.466l1.37-10.949-3.26-.227Z" fill="#0672ba" fill-rule="evenodd" data-name="パス 4477"/><path d="M119.822 89.604a1.966 1.966 0 0 1-2.107 2.157l-7.382 14.04-1.982-3.043 7.545-13.25a1.977 1.977 0 0 1 3.925.096Z" fill="#ffb6b6" fill-rule="evenodd" data-name="パス 4478"/><path d="M96.582 108.09s-.293 2.497 2.518 3.116c2.812.618 10.6-3.833 11.878-4.513.4-.212.942-1.256 1.499-2.589.25-.598.502-1.255.747-1.921.14-.385.817-.49.95-.873.132-.38-.278-1.038-.159-1.396.569-1.7.972-3.05.972-3.05l-1.863-3.5c-2.606 1.378-3.943 4.412-4.926 7.909l-11.616 6.817Z" fill="#0672ba" fill-rule="evenodd" data-name="パス 4479"/><path d="M63.747 92.828a1.966 1.966 0 0 0 2.58 1.56l10.66 11.746 1.158-3.442-10.621-10.94a1.977 1.977 0 0 0-3.777 1.075Z" fill="#ffb6b6" fill-rule="evenodd" data-name="パス 4480"/><path d="M90.874 104.91s.909 2.344-1.659 3.647c-2.567 1.302-11.222-1.058-12.629-1.397-.44-.106-1.226-.98-2.099-2.131-.392-.517-.8-1.09-1.204-1.673-.233-.338-.914-.27-1.138-.608-.223-.335.01-1.074-.196-1.39-.976-1.505-1.704-2.71-1.704-2.71l.928-3.856c2.868.682 4.921 3.286 6.748 6.425l12.953 3.693Z" fill="#0672ba" fill-rule="evenodd" data-name="パス 4481"/><path d="M88.403 95.056a5.24 5.24 0 1 1 0 .1z" fill="#ffb6b6" fill-rule="evenodd" data-name="楕円形 223"/><path d="M99.623 92.156c-.55-.852-1.585-1.42-2.588-1.26a3.534 3.534 0 0 0-5.921-2.062 1.1 1.1 0 0 0-1.075-.108 2.266 2.266 0 0 0-.873.701 5.086 5.086 0 0 0-.712 5.174c-.122-.446.324-.865.775-.965.451-.1.924-.005 1.382-.07.586-.084 1.113-.424 1.7-.5a3.87 3.87 0 0 1 1.47.189c.474.157.973.224 1.471.197.494-.058 1.131 1.814 1.122 3.133-.001.25.05.571.295.624.3.066.475-.35.761-.463a.53.53 0 0 1 .65.346.863.863 0 0 1-.165.773 2.551 2.551 0 0 1-.619.537l.118.098c.231.244.602.29.886.11.27-.183.49-.432.636-.724a8.524 8.524 0 0 0 1.167-2.795c.184-.999.071-2.082-.48-2.935Z" fill="#2f2e41" fill-rule="evenodd" data-name="パス 4482"/><path d="M138.384 112.82c-6.758 5.12-20.205 3.502-24.378 12.27-12.634 26.546-23.443 6.324-34.505 4.137l-.102-.542c11.074.919 22.952-.506 34.35-4.121 10.302-3.267 19.492-8.126 26.578-14.047l.37.463c-.747.626-1.518 1.24-2.313 1.84Z" fill="#f2f2f2" fill-rule="evenodd" data-name="パス 4483"/><path d="M109.811 182.348c-.16.477-92.058.477-92.232.002.161-.478 92.058-.478 92.232-.002Z" fill="#ccc" fill-rule="evenodd" data-name="パス 4484"/></g></svg>